<?xml version="1.0" encoding="UTF-8"?><svg id="b" xmlns="http://www.w3.org/2000/svg" xmlns:xlink="http://www.w3.org/1999/xlink" viewBox="0 0 413.44 62.26"><defs><style>.e{fill:url(#d);}</style><linearGradient id="d" x1="0" y1="31.13" x2="413.44" y2="31.13" gradientTransform="matrix(1, 0, 0, 1, 0, 0)" gradientUnits="userSpaceOnUse"><stop offset="0" stop-color="#48c2c5"/><stop offset=".14" stop-color="#4cbac5"/><stop offset=".35" stop-color="#5aa5c8"/><stop offset=".53" stop-color="#6890cb"/><stop offset=".86" stop-color="#707fbe"/><stop offset="1" stop-color="#7477b8"/></linearGradient></defs><g id="c"><g><path class="e" d="M112.13,55.54c-.17,1.05-.61,1.48-1.14,1.83-2.53,1.92-9.26,4.89-17.47,4.89-14.58,0-21.66-9.17-21.66-20.7,0-13.54,10.13-25.76,26.29-25.76,11.7,0,17.64,6.38,17.64,14.15,0,9.52-8.73,14.15-17.03,14.15-5.15,0-11.96-1.75-15.37-5.15-.09,.52-.09,.87-.09,1.48,0,5.76,4.37,10.48,11.88,10.48,5.5,0,11.44-2.18,14.06-5.85,.44-.61,.7-.61,1.22-.44l2.97,1.05c.52,.17,.61,.44,.52,.87l-1.83,8.99Zm-15.54-19.74c5.06,0,8.91-2.18,8.91-5.24,0-2.79-3.58-4.98-8.21-4.98-4.32,0-8.14,1.96-10.5,4.81-.78,.94-.52,2.35,.52,2.99,2.88,1.76,6.32,2.42,9.29,2.42Z"/><path class="e" d="M119.03,31.61c-.79-.87-.7-1.66-.35-2.79,2.01-6.55,7.68-12.92,15.37-12.92,6.11,0,10.65,3.75,10.65,11.88,0,8.82-4.45,15.37-4.45,19.21,0,2.27,1.31,3.49,3.84,3.49,4.96,0,11.52-5.23,13.17-11.88,.22-.88,.17-1.8-.1-2.67-.8-2.5-1.45-5.07-1.45-8.16,0-6.2,2.36-12.05,7.95-12.05,4.37,0,7.68,3.49,7.77,9.87,0,6.37-2.88,12.14-4.37,16.59-.52,1.48-.87,2.79-.87,4.02,0,3.06,1.92,4.72,5.06,4.72,5.54,0,12.82-5.24,14.34-12.6,.2-.95,.08-1.94-.31-2.82-1.51-3.44-2.42-7.14-2.42-10.34,0-5.59,2.45-9.43,7.86-9.43,6.03,0,8.65,5.94,8.65,12.75,0,13.27-9.34,33.62-26.46,33.62-6.46,0-11.04-4.09-12.71-9.31-.24-.76-1.24-.91-1.73-.29-4.4,5.6-9.81,9.6-17.61,9.6s-12.31-4.45-12.31-11.09c0-6.03,5.33-14.41,5.33-20.17,0-2.01-.87-3.06-2.44-3.06-2.97,0-4.89,4.28-6.03,8.21-.26,.96-1.14,1.14-1.83,.44l-4.54-4.8Z"/><path class="e" d="M241.46,56.06c-.09,.52-.44,.96-.96,1.31-3.23,2.18-8.91,4.8-16.68,4.8-12.66,0-21.66-7.51-21.66-20.61,0-15.89,12.31-25.76,25.76-25.76,7.95,0,13.97,2.97,17.38,5.85,.26,.26,.44,.61,.35,1.14l-1.83,9.69c-.09,.61-.35,.96-.96,1.14l-3.58,.87c-.52,.09-.87-.09-1.05-.61-1.13-4.02-4.72-6.81-10.83-6.81s-12.92,4.89-12.92,13.19c0,5.85,4.28,10.39,11,10.39,6.03,0,10.22-2.88,12.84-6.46,.26-.44,.7-.7,1.13-.52l3.49,1.31c.35,.09,.61,.44,.52,.96l-2.01,10.13Z"/><path class="e" d="M275.26,46.37c.79,.79,.61,1.66,.26,2.79-2.01,6.55-7.51,13.01-15.89,13.01-9.61,0-13.01-7.25-10.92-17.2l6.41-31.4c.25-1.24-.69-2.4-1.96-2.4h-5.15c-1.22,0-1.49-.44-1.31-1.48l1.48-8.21c.17-1.05,.79-1.48,1.66-1.48h17.2c1.31,0,1.83,.87,1.57,2.1l-8.03,41.22c-.7,3.58-.7,6.99,2.27,6.99,2.79,0,4.89-4.28,6.03-8.3,.26-.96,1.05-1.14,1.75-.44l4.63,4.8Z"/><path class="e" d="M334.73,46.37c.7,.79,.79,1.48,.35,2.79-2.01,6.55-7.69,12.92-15.37,12.92-5.33,0-9.26-2.53-10.57-7.34h-.44c-3.84,4.54-9.61,7.42-15.89,7.42-8.73,0-14.5-4.89-14.5-12.4,0-8.99,8.38-15.02,18.86-15.02,3.97,0,7.62,.86,10.49,2.41,1.18,.64,2.62-.12,2.88-1.43,.18-.95,.26-1.71,.26-2.38,0-3.93-3.49-5.76-9.26-5.76s-10.74,2.01-15.02,4.72c-.79,.44-1.57,.44-1.4-.7l1.83-10.57c.09-.44,.35-.79,.7-1.05,3.14-2.01,9.61-4.19,17.12-4.19,10.39,0,18.25,3.84,18.25,13.36,0,5.33-2.97,12.58-3.32,17.2-.17,2.45,.79,3.93,2.62,3.93,2.97,0,4.89-4.37,6.03-8.3,.35-1.14,1.31-1.05,1.83-.44l4.54,4.8Zm-26.29-.52c.61-2.71-4.72-4.1-9-4.1-5.94,0-8.99,2.71-8.99,5.76s3.14,4.63,7.25,4.63c4.45,0,9.87-2.36,10.48-5.24l.26-1.05Z"/><path class="e" d="M333.1,31.61c-.79-.87-.7-1.66-.35-2.79,2.01-6.55,7.68-12.92,15.37-12.92,6.11,0,10.65,3.75,10.65,11.88,0,8.82-4.45,15.37-4.45,19.21,0,2.27,1.31,3.49,3.84,3.49,4.96,0,11.52-5.23,13.17-11.88,.22-.88,.17-1.8-.1-2.67-.8-2.5-1.45-5.07-1.45-8.16,0-6.2,2.36-12.05,7.95-12.05,4.37,0,7.68,3.49,7.77,9.87,0,6.37-2.88,12.14-4.37,16.59-.52,1.48-.87,2.79-.87,4.02,0,3.06,1.92,4.72,5.07,4.72,5.53,0,12.82-5.24,14.34-12.6,.2-.95,.08-1.94-.31-2.82-1.51-3.44-2.42-7.14-2.42-10.34,0-5.59,2.44-9.43,7.86-9.43,6.03,0,8.64,5.94,8.64,12.75,0,13.27-9.34,33.62-26.46,33.62-6.46,0-11.05-4.09-12.71-9.31-.24-.76-1.24-.91-1.73-.29-4.4,5.6-9.81,9.6-17.61,9.6s-12.31-4.45-12.31-11.09c0-6.03,5.33-14.41,5.33-20.17,0-2.01-.87-3.06-2.45-3.06-2.97,0-4.89,4.28-6.03,8.21-.26,.96-1.13,1.14-1.83,.44l-4.54-4.8Z"/><path class="e" d="M13.63,.99C5.48,1.12,0,7.76,0,15.58c0,4.77,2.44,9,6.2,11.59,.95,.66,1.1,.48,.33-.38-1.15-1.28-2.39-3.27-2.27-5.83,.19-3.78,3.32-7.22,7.59-7.95,.27-.05,.55-.06,.82-.06h.14c3.28,0,5.49,2.64,4.92,5.87l-5.08,28.85c-.24,1.36-1.57,2.48-2.95,2.48H5.15c-1.22,0-1.66,.44-1.83,1.48l-1.66,9c-.17,1.05,.35,1.48,1.31,1.48h29.69c9.61,0,17.47-2.79,23.32-7.25,7.6-5.76,12.14-13.97,13.27-23.49,1.22-9.78-1.4-18.25-7.86-23.84-4.72-4.1-11.7-6.55-21.22-6.55H13.63ZM56.93,31.48c-.79,6.2-3.84,10.65-7.25,13.62-3.84,3.32-8.56,5.06-14.5,5.06h-5.96c-2.63,0-4.4-2.12-3.94-4.7l5.21-29.2c.32-1.81,2.1-3.3,3.94-3.3h5.47c5.94,0,10.39,1.48,13.36,4.8,2.62,2.88,4.45,7.34,3.67,13.71Z"/></g></g></svg>